<mxfile host="app.diagrams.net" modified="2023-06-01T05:00:50.172Z" agent="Mozilla/5.0 (Windows NT 10.0; Win64; x64) AppleWebKit/537.36 (KHTML, like Gecko) Chrome/113.0.0.0 Safari/537.36" etag="hDhlHGyD91HcisSS0482" version="21.3.6" type="google">
  <diagram name="Página-1" id="NcJdMQl1-OPehAwmRHjr">
    <mxGraphModel grid="1" page="1" gridSize="10" guides="1" tooltips="1" connect="1" arrows="1" fold="1" pageScale="1" pageWidth="827" pageHeight="1169" math="0" shadow="0">
      <root>
        <mxCell id="0" />
        <mxCell id="1" parent="0" />
        <mxCell id="g0AFMlLOV5sjUeZijLwO-1" value="" style="ellipse;html=1;shape=startState;fillColor=#000000;strokeColor=#030000;" vertex="1" parent="1">
          <mxGeometry x="130" y="215" width="30" height="30" as="geometry" />
        </mxCell>
        <mxCell id="g0AFMlLOV5sjUeZijLwO-8" style="edgeStyle=orthogonalEdgeStyle;rounded=0;orthogonalLoop=1;jettySize=auto;html=1;entryX=0;entryY=0.5;entryDx=0;entryDy=0;" edge="1" parent="1" source="INB4q6a805EnSspq7XH4-1" target="INB4q6a805EnSspq7XH4-2">
          <mxGeometry relative="1" as="geometry" />
        </mxCell>
        <mxCell id="INB4q6a805EnSspq7XH4-1" value="Recopilar información del dueño" style="rounded=0;whiteSpace=wrap;html=1;" vertex="1" parent="1">
          <mxGeometry x="240" y="200" width="120" height="60" as="geometry" />
        </mxCell>
        <mxCell id="g0AFMlLOV5sjUeZijLwO-2" value="" style="edgeStyle=orthogonalEdgeStyle;html=1;verticalAlign=bottom;endArrow=open;endSize=8;strokeColor=#030000;rounded=0;" edge="1" parent="1" source="g0AFMlLOV5sjUeZijLwO-1">
          <mxGeometry relative="1" as="geometry">
            <mxPoint x="240" y="230" as="targetPoint" />
          </mxGeometry>
        </mxCell>
        <mxCell id="g0AFMlLOV5sjUeZijLwO-5" style="edgeStyle=orthogonalEdgeStyle;rounded=0;orthogonalLoop=1;jettySize=auto;html=1;exitX=0.5;exitY=1;exitDx=0;exitDy=0;" edge="1" parent="1" source="INB4q6a805EnSspq7XH4-2" target="g0AFMlLOV5sjUeZijLwO-4">
          <mxGeometry relative="1" as="geometry" />
        </mxCell>
        <mxCell id="INB4q6a805EnSspq7XH4-2" value="Verificar información del dueño" style="rounded=0;whiteSpace=wrap;html=1;" vertex="1" parent="1">
          <mxGeometry x="440" y="200" width="120" height="60" as="geometry" />
        </mxCell>
        <mxCell id="g0AFMlLOV5sjUeZijLwO-3" value="Registrar Mascota en Apipet" style="text;html=1;strokeColor=none;fillColor=none;align=center;verticalAlign=middle;whiteSpace=wrap;rounded=0;" vertex="1" parent="1">
          <mxGeometry x="115" y="170" width="60" height="30" as="geometry" />
        </mxCell>
        <mxCell id="g0AFMlLOV5sjUeZijLwO-7" style="edgeStyle=orthogonalEdgeStyle;rounded=0;orthogonalLoop=1;jettySize=auto;html=1;" edge="1" parent="1" source="g0AFMlLOV5sjUeZijLwO-4" target="g0AFMlLOV5sjUeZijLwO-6">
          <mxGeometry relative="1" as="geometry" />
        </mxCell>
        <mxCell id="g0AFMlLOV5sjUeZijLwO-9" style="edgeStyle=orthogonalEdgeStyle;rounded=0;orthogonalLoop=1;jettySize=auto;html=1;entryX=1;entryY=0.25;entryDx=0;entryDy=0;" edge="1" parent="1" source="g0AFMlLOV5sjUeZijLwO-4" target="INB4q6a805EnSspq7XH4-2">
          <mxGeometry relative="1" as="geometry">
            <Array as="points">
              <mxPoint x="580" y="340" />
              <mxPoint x="580" y="215" />
            </Array>
          </mxGeometry>
        </mxCell>
        <mxCell id="g0AFMlLOV5sjUeZijLwO-4" value="" style="strokeWidth=2;html=1;shape=mxgraph.flowchart.decision;whiteSpace=wrap;" vertex="1" parent="1">
          <mxGeometry x="480" y="320" width="40" height="40" as="geometry" />
        </mxCell>
        <mxCell id="g0AFMlLOV5sjUeZijLwO-11" style="edgeStyle=orthogonalEdgeStyle;rounded=0;orthogonalLoop=1;jettySize=auto;html=1;entryX=0;entryY=0.5;entryDx=0;entryDy=0;" edge="1" parent="1" source="g0AFMlLOV5sjUeZijLwO-6" target="INB4q6a805EnSspq7XH4-3">
          <mxGeometry relative="1" as="geometry" />
        </mxCell>
        <mxCell id="g0AFMlLOV5sjUeZijLwO-6" value="Recopilar información de la mascota" style="rounded=0;whiteSpace=wrap;html=1;" vertex="1" parent="1">
          <mxGeometry x="440" y="430" width="120" height="60" as="geometry" />
        </mxCell>
        <mxCell id="g0AFMlLOV5sjUeZijLwO-12" style="edgeStyle=orthogonalEdgeStyle;rounded=0;orthogonalLoop=1;jettySize=auto;html=1;entryX=0.5;entryY=0;entryDx=0;entryDy=0;entryPerimeter=0;" edge="1" parent="1" source="INB4q6a805EnSspq7XH4-3" target="g0AFMlLOV5sjUeZijLwO-10">
          <mxGeometry relative="1" as="geometry">
            <mxPoint x="710" y="580" as="targetPoint" />
          </mxGeometry>
        </mxCell>
        <mxCell id="INB4q6a805EnSspq7XH4-3" value="Verificar datos de la mascota" style="rounded=0;whiteSpace=wrap;html=1;" vertex="1" parent="1">
          <mxGeometry x="650" y="430" width="120" height="60" as="geometry" />
        </mxCell>
        <mxCell id="g0AFMlLOV5sjUeZijLwO-14" style="edgeStyle=orthogonalEdgeStyle;rounded=0;orthogonalLoop=1;jettySize=auto;html=1;exitX=1;exitY=0.5;exitDx=0;exitDy=0;exitPerimeter=0;entryX=0;entryY=0.5;entryDx=0;entryDy=0;" edge="1" parent="1" source="g0AFMlLOV5sjUeZijLwO-10" target="g0AFMlLOV5sjUeZijLwO-13">
          <mxGeometry relative="1" as="geometry" />
        </mxCell>
        <mxCell id="g0AFMlLOV5sjUeZijLwO-10" value="" style="strokeWidth=2;html=1;shape=mxgraph.flowchart.decision;whiteSpace=wrap;" vertex="1" parent="1">
          <mxGeometry x="690" y="580" width="40" height="40" as="geometry" />
        </mxCell>
        <mxCell id="g0AFMlLOV5sjUeZijLwO-16" style="edgeStyle=orthogonalEdgeStyle;rounded=0;orthogonalLoop=1;jettySize=auto;html=1;entryX=0;entryY=0.5;entryDx=0;entryDy=0;" edge="1" parent="1" source="g0AFMlLOV5sjUeZijLwO-13" target="g0AFMlLOV5sjUeZijLwO-15">
          <mxGeometry relative="1" as="geometry" />
        </mxCell>
        <mxCell id="g0AFMlLOV5sjUeZijLwO-13" value="Crear registro de la mascota" style="rounded=0;whiteSpace=wrap;html=1;" vertex="1" parent="1">
          <mxGeometry x="840" y="575" width="120" height="60" as="geometry" />
        </mxCell>
        <mxCell id="INB4q6a805EnSspq7XH4-5" style="edgeStyle=orthogonalEdgeStyle;rounded=0;orthogonalLoop=1;jettySize=auto;html=1;exitX=0;exitY=0.5;exitDx=0;exitDy=0;exitPerimeter=0;entryX=0;entryY=0.75;entryDx=0;entryDy=0;" edge="1" parent="1" source="g0AFMlLOV5sjUeZijLwO-10" target="INB4q6a805EnSspq7XH4-3">
          <mxGeometry relative="1" as="geometry" />
        </mxCell>
        <mxCell id="g0AFMlLOV5sjUeZijLwO-15" value="Asignar mascota al dueño" style="rounded=0;whiteSpace=wrap;html=1;" vertex="1" parent="1">
          <mxGeometry x="1070" y="575" width="120" height="60" as="geometry" />
        </mxCell>
        <mxCell id="g0AFMlLOV5sjUeZijLwO-20" style="edgeStyle=orthogonalEdgeStyle;rounded=0;orthogonalLoop=1;jettySize=auto;html=1;entryX=0;entryY=0.5;entryDx=0;entryDy=0;" edge="1" parent="1" source="g0AFMlLOV5sjUeZijLwO-17" target="g0AFMlLOV5sjUeZijLwO-19">
          <mxGeometry relative="1" as="geometry" />
        </mxCell>
        <mxCell id="g0AFMlLOV5sjUeZijLwO-17" value="Asignar UUID a la mascota" style="rounded=0;whiteSpace=wrap;html=1;" vertex="1" parent="1">
          <mxGeometry x="1290" y="575" width="120" height="60" as="geometry" />
        </mxCell>
        <mxCell id="g0AFMlLOV5sjUeZijLwO-18" style="edgeStyle=orthogonalEdgeStyle;rounded=0;orthogonalLoop=1;jettySize=auto;html=1;entryX=0;entryY=0.5;entryDx=0;entryDy=0;" edge="1" parent="1" source="g0AFMlLOV5sjUeZijLwO-15" target="g0AFMlLOV5sjUeZijLwO-17">
          <mxGeometry relative="1" as="geometry" />
        </mxCell>
        <mxCell id="g0AFMlLOV5sjUeZijLwO-19" value="" style="ellipse;html=1;shape=endState;fillColor=#000000;strokeColor=#030000;" vertex="1" parent="1">
          <mxGeometry x="1510" y="590" width="30" height="30" as="geometry" />
        </mxCell>
        <mxCell id="g0AFMlLOV5sjUeZijLwO-21" value="Datos invalidos" style="text;html=1;align=center;verticalAlign=middle;resizable=0;points=[];autosize=1;strokeColor=none;fillColor=none;" vertex="1" parent="1">
          <mxGeometry x="570" y="268" width="100" height="30" as="geometry" />
        </mxCell>
        <mxCell id="INB4q6a805EnSspq7XH4-7" value="Inicio" style="text;html=1;strokeColor=none;fillColor=none;align=center;verticalAlign=middle;whiteSpace=wrap;rounded=0;" vertex="1" parent="1">
          <mxGeometry x="115" y="250" width="60" height="30" as="geometry" />
        </mxCell>
        <mxCell id="g0AFMlLOV5sjUeZijLwO-22" value="Datos validos" style="text;html=1;align=center;verticalAlign=middle;resizable=0;points=[];autosize=1;strokeColor=none;fillColor=none;" vertex="1" parent="1">
          <mxGeometry x="500" y="378" width="100" height="30" as="geometry" />
        </mxCell>
        <mxCell id="INB4q6a805EnSspq7XH4-8" value="Fin" style="text;html=1;strokeColor=none;fillColor=none;align=center;verticalAlign=middle;whiteSpace=wrap;rounded=0;" vertex="1" parent="1">
          <mxGeometry x="1495" y="630" width="60" height="30" as="geometry" />
        </mxCell>
        <mxCell id="g0AFMlLOV5sjUeZijLwO-23" value="Datos invalidos" style="text;html=1;align=center;verticalAlign=middle;resizable=0;points=[];autosize=1;strokeColor=none;fillColor=none;" vertex="1" parent="1">
          <mxGeometry x="530" y="530" width="100" height="30" as="geometry" />
        </mxCell>
        <mxCell id="INB4q6a805EnSspq7XH4-6" style="edgeStyle=orthogonalEdgeStyle;rounded=0;orthogonalLoop=1;jettySize=auto;html=1;exitX=1;exitY=0.5;exitDx=0;exitDy=0;" edge="1" parent="1" source="g0AFMlLOV5sjUeZijLwO-15" target="g0AFMlLOV5sjUeZijLwO-17">
          <mxGeometry relative="1" as="geometry" />
        </mxCell>
        <mxCell id="g0AFMlLOV5sjUeZijLwO-25" value="Datos validos" style="text;html=1;align=center;verticalAlign=middle;resizable=0;points=[];autosize=1;strokeColor=none;fillColor=none;" vertex="1" parent="1">
          <mxGeometry x="727" y="560" width="100" height="30" as="geometry" />
        </mxCell>
        <mxCell id="9JoOkcVLhJMCpNnqUEyo-1" value="" style="rounded=0;whiteSpace=wrap;html=1;fillColor=none;" vertex="1" parent="1">
          <mxGeometry x="85" y="100" width="1515" height="670" as="geometry" />
        </mxCell>
        <mxCell id="9JoOkcVLhJMCpNnqUEyo-2" value="&lt;font style=&quot;font-size: 27px;&quot;&gt;&lt;b&gt;Diagrama de actividades para registrar una mascota en Apipet&lt;/b&gt;&lt;/font&gt;" style="text;html=1;strokeColor=none;fillColor=none;align=center;verticalAlign=middle;whiteSpace=wrap;rounded=0;" vertex="1" parent="1">
          <mxGeometry x="620" y="110" width="440" height="80" as="geometry" />
        </mxCell>
        <mxCell id="9JoOkcVLhJMCpNnqUEyo-3" value="&lt;h1&gt;Diagrama de actividades Apipet&lt;/h1&gt;&lt;p style=&quot;font-size: 16px;&quot;&gt;El diagrama de actividades dentro de Apipet tiene un gran valor puesto que nos ayuda a identificar aspectos muy importantes que deben ser tenidos en cuenta dentro de las transacciones, en este caso el registrar una mascota, ya que muestra de manera clara y estructurada el flujo de las actividades que se llevan a cabo. Es especialmente util para modelar operaciones que pueden tener un alto grado de complejidad y que no pueden ser explicadas verbalmente con facilidad. Se puede llegar a optimizar la transacción por medio del diagrama antes de empezar la etapa de desarrollo y descubrir posibles errores o cuellos de botella.&lt;/p&gt;" style="text;html=1;strokeColor=none;fillColor=none;spacing=5;spacingTop=-20;whiteSpace=wrap;overflow=hidden;rounded=0;" vertex="1" parent="1">
          <mxGeometry x="85" y="780" width="695" height="190" as="geometry" />
        </mxCell>
      </root>
    </mxGraphModel>
  </diagram>
</mxfile>
